<svg width="13" height="20" viewBox="0 0 13 20" fill="none" xmlns="http://www.w3.org/2000/svg">
<g id="&#240;&#159;&#166;&#134; icon &#34;lightbulb&#34;">
<path id="Vector" d="M8.7097 0.0191899C8.59494 0.0532798 8.48567 0.103709 8.38527 0.168927L0.898422 3.91235C0.722963 3.96353 0.560889 4.05262 0.423657 4.17334C0.286426 4.29405 0.177388 4.44344 0.104253 4.61094C0.0311186 4.77844 -0.00432747 4.95996 0.000421295 5.14267C0.00517006 5.32538 0.0499977 5.50481 0.131735 5.66828C0.213472 5.83176 0.330122 5.97528 0.473439 6.08871C0.616756 6.20213 0.78324 6.28268 0.961121 6.32468C1.139 6.36667 1.32393 6.36907 1.50285 6.33172C1.68176 6.29436 1.85028 6.21816 1.99649 6.10849L9.48334 2.36507C9.75208 2.23142 9.96364 2.00538 10.0792 1.72839C10.1948 1.45141 10.2067 1.14204 10.1127 0.857004C10.0187 0.571967 9.82512 0.330362 9.56743 0.176482C9.30974 0.0226021 9.00522 -0.0332411 8.7097 0.0191899ZM11.2053 3.76261C11.0906 3.79671 10.9813 3.84713 10.8809 3.91235L0.898422 8.90359C0.722963 8.95476 0.560889 9.04386 0.423657 9.16457C0.286426 9.28529 0.177388 9.43468 0.104253 9.60217C0.0311186 9.76967 -0.00432747 9.95119 0.000421295 10.1339C0.00517006 10.3166 0.0499977 10.496 0.131735 10.6595C0.213472 10.823 0.330122 10.9665 0.473439 11.0799C0.616756 11.1934 0.78324 11.2739 0.961121 11.3159C1.139 11.3579 1.32393 11.3603 1.50285 11.3229C1.68176 11.2856 1.85028 11.2094 1.99649 11.0997L11.979 6.10849C12.2477 5.97484 12.4593 5.7488 12.5748 5.47182C12.6904 5.19483 12.7023 4.88547 12.6083 4.60043C12.5143 4.31539 12.3207 4.07379 12.063 3.91991C11.8054 3.76603 11.5008 3.71018 11.2053 3.76261ZM11.2053 8.75385C11.0906 8.78794 10.9813 8.83837 10.8809 8.90359L3.39404 12.647C3.15254 12.777 2.96058 12.9829 2.84786 13.2329C2.73513 13.4829 2.70791 13.7631 2.77041 14.0302C2.83291 14.2972 2.98164 14.5362 3.19361 14.7102C3.40558 14.8842 3.66898 14.9836 3.94307 14.9929H8.93431C9.26525 15.0458 9.60367 14.9652 9.87512 14.7686C10.1466 14.572 10.3288 14.2757 10.3818 13.9447C10.4347 13.6138 10.354 13.2754 10.1575 13.0039C9.9609 12.7325 9.66455 12.5502 9.33361 12.4973L11.979 11.0997C12.2477 10.9661 12.4593 10.74 12.5748 10.4631C12.6904 10.1861 12.7023 9.8767 12.6083 9.59166C12.5143 9.30663 12.3207 9.06502 12.063 8.91114C11.8054 8.75726 11.5008 8.70142 11.2053 8.75385ZM4.81654 17.4885C4.4856 17.5415 4.18925 17.7237 3.99268 17.9952C3.79611 18.2666 3.71543 18.605 3.76838 18.936C3.82133 19.2669 4.00358 19.5633 4.27503 19.7598C4.54648 19.9564 4.8849 20.0371 5.21584 19.9841H7.71146C8.04239 19.9841 8.35978 19.8527 8.59379 19.6186C8.8278 19.3846 8.95926 19.0673 8.95926 18.7363C8.95926 18.4054 8.8278 18.088 8.59379 17.854C8.35978 17.62 8.04239 17.4885 7.71146 17.4885H5.21584C5.14112 17.4818 5.06595 17.4818 4.99123 17.4885C4.94137 17.4855 4.89136 17.4855 4.8415 17.4885H4.81654Z" fill="black" fill-opacity="0.5"/>
</g>
</svg>
